<?xml version="1.0" standalone="no"?>
<svg xmlns="http://www.w3.org/2000/svg" xmlns:xlink="http://www.w3.org/1999/xlink" width="528pt" height="853pt" viewBox="0.00 0.00 527.6 852.8">
<g id="graph0" class="graph" transform="translate(4,848.7999877929688) scale(1)" data-name="G">

<polygon fill="white" stroke="none" points="-4,4 -4,-848.8 523.6,-848.8 523.6,4 -4,4"/>
<!-- A -->
<g id="node1" class="node" pointer-events="visible" data-name="A">

<path fill="none" stroke="black" d="M323.28,-844.8C323.28,-844.8 293.28,-844.8 293.28,-844.8 287.28,-844.8 281.28,-838.8 281.28,-832.8 281.28,-832.8 281.28,-820.8 281.28,-820.8 281.28,-814.8 287.28,-808.8 293.28,-808.8 293.28,-808.8 323.28,-808.8 323.28,-808.8 329.28,-808.8 335.28,-814.8 335.28,-820.8 335.28,-820.8 335.28,-832.8 335.28,-832.8 335.28,-838.8 329.28,-844.8 323.28,-844.8"/>
<text text-anchor="middle" x="308.28" y="-822.6" font-family="Times,serif" font-size="14.00">Start</text>
</g>
<!-- B -->
<g id="node2" class="node" pointer-events="visible" data-name="B">

<path fill="none" stroke="black" d="M362.22,-772.8C362.22,-772.8 254.33,-772.8 254.33,-772.8 248.33,-772.8 242.33,-766.8 242.33,-760.8 242.33,-760.8 242.33,-748.8 242.33,-748.8 242.33,-742.8 248.33,-736.8 254.33,-736.8 254.33,-736.8 362.22,-736.8 362.22,-736.8 368.22,-736.8 374.22,-742.8 374.22,-748.8 374.22,-748.8 374.22,-760.8 374.22,-760.8 374.22,-766.8 368.22,-772.8 362.22,-772.8"/>
<text text-anchor="middle" x="308.28" y="-750.6" font-family="Times,serif" font-size="14.00">Initialize Parameters</text>
</g>
<!-- A&#45;&gt;B -->
<g id="edge1" class="edge" data-name="A-&gt;B">

<path fill="none" stroke="black" d="M308.28,-808.5C308.28,-801.21 308.28,-792.53 308.28,-784.34"/>
<polygon fill="black" stroke="black" points="311.78,-784.42 308.28,-774.42 304.78,-784.42 311.78,-784.42"/>
</g>
<!-- C -->
<g id="node3" class="node" pointer-events="visible" data-name="C">

<path fill="none" stroke="black" d="M366.96,-700.8C366.96,-700.8 249.59,-700.8 249.59,-700.8 243.59,-700.8 237.59,-694.8 237.59,-688.8 237.59,-688.8 237.59,-676.8 237.59,-676.8 237.59,-670.8 243.59,-664.8 249.59,-664.8 249.59,-664.8 366.96,-664.8 366.96,-664.8 372.96,-664.8 378.96,-670.8 378.96,-676.8 378.96,-676.8 378.96,-688.8 378.96,-688.8 378.96,-694.8 372.96,-700.8 366.96,-700.8"/>
<text text-anchor="middle" x="308.28" y="-678.6" font-family="Times,serif" font-size="14.00">Generate Chirp Signal</text>
</g>
<!-- B&#45;&gt;C -->
<g id="edge2" class="edge" data-name="B-&gt;C">

<path fill="none" stroke="black" d="M308.28,-736.5C308.28,-729.21 308.28,-720.53 308.28,-712.34"/>
<polygon fill="black" stroke="black" points="311.78,-712.42 308.28,-702.42 304.78,-712.42 311.78,-712.42"/>
</g>
<!-- D -->
<g id="node4" class="node" pointer-events="visible" data-name="D">

<path fill="none" stroke="black" d="M397.8,-628.8C397.8,-628.8 218.75,-628.8 218.75,-628.8 212.75,-628.8 206.75,-622.8 206.75,-616.8 206.75,-616.8 206.75,-604.8 206.75,-604.8 206.75,-598.8 212.75,-592.8 218.75,-592.8 218.75,-592.8 397.8,-592.8 397.8,-592.8 403.8,-592.8 409.8,-598.8 409.8,-604.8 409.8,-604.8 409.8,-616.8 409.8,-616.8 409.8,-622.8 403.8,-628.8 397.8,-628.8"/>
<text text-anchor="middle" x="308.28" y="-606.6" font-family="Times,serif" font-size="14.00">Compute Power Spectral Density</text>
</g>
<!-- C&#45;&gt;D -->
<g id="edge3" class="edge" data-name="C-&gt;D">

<path fill="none" stroke="black" d="M308.28,-664.5C308.28,-657.21 308.28,-648.53 308.28,-640.34"/>
<polygon fill="black" stroke="black" points="311.78,-640.42 308.28,-630.42 304.78,-640.42 311.78,-640.42"/>
</g>
<!-- E -->
<g id="node5" class="node" pointer-events="visible" data-name="E">

<path fill="none" stroke="black" d="M394.67,-556.8C394.67,-556.8 221.88,-556.8 221.88,-556.8 215.88,-556.8 209.88,-550.8 209.88,-544.8 209.88,-544.8 209.88,-532.8 209.88,-532.8 209.88,-526.8 215.88,-520.8 221.88,-520.8 221.88,-520.8 394.67,-520.8 394.67,-520.8 400.67,-520.8 406.67,-526.8 406.67,-532.8 406.67,-532.8 406.67,-544.8 406.67,-544.8 406.67,-550.8 400.67,-556.8 394.67,-556.8"/>
<text text-anchor="middle" x="308.28" y="-534.6" font-family="Times,serif" font-size="14.00">Initialize Simulation Parameters</text>
</g>
<!-- D&#45;&gt;E -->
<g id="edge4" class="edge" data-name="D-&gt;E">

<path fill="none" stroke="black" d="M308.28,-592.5C308.28,-585.21 308.28,-576.53 308.28,-568.34"/>
<polygon fill="black" stroke="black" points="311.78,-568.42 308.28,-558.42 304.78,-568.42 311.78,-568.42"/>
</g>
<!-- F -->
<g id="node6" class="node" pointer-events="visible" data-name="F">

<path fill="none" stroke="black" d="M371.43,-484.8C371.43,-484.8 245.13,-484.8 245.13,-484.8 239.13,-484.8 233.13,-478.8 233.13,-472.8 233.13,-472.8 233.13,-460.8 233.13,-460.8 233.13,-454.8 239.13,-448.8 245.13,-448.8 245.13,-448.8 371.43,-448.8 371.43,-448.8 377.43,-448.8 383.43,-454.8 383.43,-460.8 383.43,-460.8 383.43,-472.8 383.43,-472.8 383.43,-478.8 377.43,-484.8 371.43,-484.8"/>
<text text-anchor="middle" x="308.28" y="-462.6" font-family="Times,serif" font-size="14.00">Loop Over SNR Values</text>
</g>
<!-- E&#45;&gt;F -->
<g id="edge5" class="edge" data-name="E-&gt;F">

<path fill="none" stroke="black" d="M308.28,-520.5C308.28,-513.21 308.28,-504.53 308.28,-496.34"/>
<polygon fill="black" stroke="black" points="311.78,-496.42 308.28,-486.42 304.78,-496.42 311.78,-496.42"/>
</g>
<!-- G -->
<g id="node7" class="node" pointer-events="visible" data-name="G">

<path fill="none" stroke="black" d="M267.21,-412.8C267.21,-412.8 143.34,-412.8 143.34,-412.8 137.34,-412.8 131.34,-406.8 131.34,-400.8 131.34,-400.8 131.34,-388.8 131.34,-388.8 131.34,-382.8 137.34,-376.8 143.34,-376.8 143.34,-376.8 267.21,-376.8 267.21,-376.8 273.21,-376.8 279.21,-382.8 279.21,-388.8 279.21,-388.8 279.21,-400.8 279.21,-400.8 279.21,-406.8 273.21,-412.8 267.21,-412.8"/>
<text text-anchor="middle" x="205.28" y="-390.6" font-family="Times,serif" font-size="14.00">Loop Over Simulations</text>
</g>
<!-- F&#45;&gt;G -->
<g id="edge6" class="edge" data-name="F-&gt;G">

<path fill="none" stroke="black" d="M282.55,-448.32C269.67,-439.56 253.9,-428.84 239.97,-419.38"/>
<polygon fill="black" stroke="black" points="242.17,-416.64 231.93,-413.91 238.23,-422.43 242.17,-416.64"/>
</g>
<!-- H -->
<g id="node8" class="node" pointer-events="visible" data-name="H">

<path fill="none" stroke="black" d="M164.33,-338C164.33,-338 12.22,-338 12.22,-338 6.22,-338 0.22,-332 0.22,-326 0.22,-326 0.22,-314 0.22,-314 0.22,-308 6.22,-302 12.22,-302 12.22,-302 164.33,-302 164.33,-302 170.33,-302 176.33,-308 176.33,-314 176.33,-314 176.33,-326 176.33,-326 176.33,-332 170.33,-338 164.33,-338"/>
<text text-anchor="middle" x="88.28" y="-315.8" font-family="Times,serif" font-size="14.00">Generate Random End Time</text>
</g>
<!-- G&#45;&gt;H -->
<g id="edge7" class="edge" data-name="G-&gt;H">

<path fill="none" stroke="black" d="M177.25,-376.36C161.77,-366.73 142.33,-354.63 125.58,-344.21"/>
<polygon fill="black" stroke="black" points="127.7,-341.41 117.36,-339.09 124,-347.35 127.7,-341.41"/>
</g><g id="edge15" class="edge" data-name="F-&gt;N" data-comment="G-&gt;H">

<path fill="none" stroke="black" d="M339.5,-448.32C355.58,-439.31 375.38,-428.22 392.64,-418.56"/>
<polygon fill="black" stroke="black" points="394.12,-421.74 401.13,-413.8 390.7,-415.63 394.12,-421.74"/>
</g>
<!-- I -->
<g id="node9" class="node" pointer-events="visible" data-name="I">

<path fill="none" stroke="black" d="M160.41,-263C160.41,-263 24.14,-263 24.14,-263 18.14,-263 12.14,-257 12.14,-251 12.14,-251 12.14,-233.8 12.14,-233.8 12.14,-227.8 18.14,-221.8 24.14,-221.8 24.14,-221.8 160.41,-221.8 160.41,-221.8 166.41,-221.8 172.41,-227.8 172.41,-233.8 172.41,-233.8 172.41,-251 172.41,-251 172.41,-257 166.41,-263 160.41,-263"/>
<text text-anchor="middle" x="92.28" y="-246.6" font-family="Times,serif" font-size="14.00">Simulate Received Signal</text>
<text text-anchor="middle" x="92.28" y="-229.8" font-family="Times,serif" font-size="14.00">and Add Noise</text>
</g>
<!-- H&#45;&gt;I -->
<g id="edge8" class="edge" data-name="H-&gt;I">

<path fill="none" stroke="black" d="M89.19,-301.85C89.61,-293.82 90.13,-284 90.62,-274.72"/>
<polygon fill="black" stroke="black" points="94.1,-275.11 91.14,-264.94 87.11,-274.74 94.1,-275.11"/>
</g>
<!-- J -->
<g id="node10" class="node" pointer-events="visible" data-name="J">

<path fill="none" stroke="black" d="M157.09,-185.6C157.09,-185.6 43.47,-185.6 43.47,-185.6 37.47,-185.6 31.47,-179.6 31.47,-173.6 31.47,-173.6 31.47,-161.6 31.47,-161.6 31.47,-155.6 37.47,-149.6 43.47,-149.6 43.47,-149.6 157.09,-149.6 157.09,-149.6 163.09,-149.6 169.09,-155.6 169.09,-161.6 169.09,-161.6 169.09,-173.6 169.09,-173.6 169.09,-179.6 163.09,-185.6 157.09,-185.6"/>
<text text-anchor="middle" x="100.28" y="-163.4" font-family="Times,serif" font-size="14.00">Apply Matched Filter</text>
</g>
<!-- I&#45;&gt;J -->
<g id="edge9" class="edge" data-name="I-&gt;J">

<path fill="none" stroke="black" d="M94.46,-221.51C95.28,-214.04 96.23,-205.4 97.13,-197.29"/>
<polygon fill="black" stroke="black" points="100.59,-197.82 98.2,-187.5 93.63,-197.05 100.59,-197.82"/>
</g><g id="edge13" class="edge" data-name="G-&gt;M" data-comment="I-&gt;J">

<path fill="none" stroke="black" d="M229.95,-376.36C242.23,-367.68 257.34,-357 271,-347.35"/>
<polygon fill="black" stroke="black" points="272.79,-350.37 278.93,-341.74 268.75,-344.65 272.79,-350.37"/>
</g>
<!-- K -->
<g id="node11" class="node" pointer-events="visible" data-name="K">

<path fill="none" stroke="black" d="M157.36,-113.6C157.36,-113.6 57.19,-113.6 57.19,-113.6 51.19,-113.6 45.19,-107.6 45.19,-101.6 45.19,-101.6 45.19,-89.6 45.19,-89.6 45.19,-83.6 51.19,-77.6 57.19,-77.6 57.19,-77.6 157.36,-77.6 157.36,-77.6 163.36,-77.6 169.36,-83.6 169.36,-89.6 169.36,-89.6 169.36,-101.6 169.36,-101.6 169.36,-107.6 163.36,-113.6 157.36,-113.6"/>
<text text-anchor="middle" x="107.28" y="-91.4" font-family="Times,serif" font-size="14.00">Estimate End Time</text>
</g>
<!-- J&#45;&gt;K -->
<g id="edge10" class="edge" data-name="J-&gt;K">

<path fill="none" stroke="black" d="M102.01,-149.3C102.74,-142.01 103.61,-133.33 104.42,-125.14"/>
<polygon fill="black" stroke="black" points="107.9,-125.51 105.42,-115.21 100.94,-124.81 107.9,-125.51"/>
</g>
<!-- L -->
<g id="node12" class="node" pointer-events="visible" data-name="L">

<path fill="none" stroke="black" d="M224.84,-41.4C224.84,-41.4 79.71,-41.4 79.71,-41.4 73.71,-41.4 67.71,-35.4 67.71,-29.4 67.71,-29.4 67.71,-12.2 67.71,-12.2 67.71,-6.2 73.71,-0.2 79.71,-0.2 79.71,-0.2 224.84,-0.2 224.84,-0.2 230.84,-0.2 236.84,-6.2 236.84,-12.2 236.84,-12.2 236.84,-29.4 236.84,-29.4 236.84,-35.4 230.84,-41.4 224.84,-41.4"/>
<text text-anchor="middle" x="152.28" y="-25" font-family="Times,serif" font-size="14.00">Calculate Squared Error</text>
<text text-anchor="middle" x="152.28" y="-8.2" font-family="Times,serif" font-size="14.00">and Check Success Criteria</text>
</g>
<!-- K&#45;&gt;L -->
<g id="edge11" class="edge" data-name="K-&gt;L">

<path fill="none" stroke="black" d="M117.94,-77.35C122.74,-69.59 128.54,-60.21 133.99,-51.38"/>
<polygon fill="black" stroke="black" points="136.86,-53.4 139.14,-43.05 130.91,-49.72 136.86,-53.4"/>
</g>
<!-- M -->
<g id="node13" class="node" pointer-events="visible" data-name="M">

<path fill="none" stroke="black" d="M372.34,-340.6C372.34,-340.6 244.22,-340.6 244.22,-340.6 238.22,-340.6 232.22,-334.6 232.22,-328.6 232.22,-328.6 232.22,-311.4 232.22,-311.4 232.22,-305.4 238.22,-299.4 244.22,-299.4 244.22,-299.4 372.34,-299.4 372.34,-299.4 378.34,-299.4 384.34,-305.4 384.34,-311.4 384.34,-311.4 384.34,-328.6 384.34,-328.6 384.34,-334.6 378.34,-340.6 372.34,-340.6"/>
<text text-anchor="middle" x="308.28" y="-324.2" font-family="Times,serif" font-size="14.00">Calculate Average MSE</text>
<text text-anchor="middle" x="308.28" y="-307.4" font-family="Times,serif" font-size="14.00">and Accuracy</text>
</g>
<!-- L&#45;&gt;M -->

<!-- N -->
<g id="node14" class="node" pointer-events="visible" data-name="N">

<path fill="none" stroke="black" d="M507.43,-412.8C507.43,-412.8 359.13,-412.8 359.13,-412.8 353.13,-412.8 347.13,-406.8 347.13,-400.8 347.13,-400.8 347.13,-388.8 347.13,-388.8 347.13,-382.8 353.13,-376.8 359.13,-376.8 359.13,-376.8 507.43,-376.8 507.43,-376.8 513.43,-376.8 519.43,-382.8 519.43,-388.8 519.43,-388.8 519.43,-400.8 519.43,-400.8 519.43,-406.8 513.43,-412.8 507.43,-412.8"/>
<text text-anchor="middle" x="433.28" y="-390.6" font-family="Times,serif" font-size="14.00">Generate and Display Table</text>
</g>
<!-- M&#45;&gt;N -->

<!-- O -->
<g id="node15" class="node" pointer-events="visible" data-name="O">

<path fill="none" stroke="black" d="M474.07,-338C474.07,-338 414.48,-338 414.48,-338 408.48,-338 402.48,-332 402.48,-326 402.48,-326 402.48,-314 402.48,-314 402.48,-308 408.48,-302 414.48,-302 414.48,-302 474.07,-302 474.07,-302 480.07,-302 486.07,-308 486.07,-314 486.07,-314 486.07,-326 486.07,-326 486.07,-332 480.07,-338 474.07,-338"/>
<text text-anchor="middle" x="444.28" y="-315.8" font-family="Times,serif" font-size="14.00">Plot Results</text>
</g><g id="edge12" class="edge" data-name="L-&gt;G" data-comment="O">

<path fill="none" stroke="black" d="M164.34,-41.61C179.7,-68.78 204.28,-119.59 204.28,-166.6 204.28,-243.4 204.28,-243.4 204.28,-243.4 204.28,-285.86 204.68,-335.05 204.98,-365.3"/>
<polygon fill="black" stroke="black" points="201.47,-365.18 205.07,-375.14 208.47,-365.11 201.47,-365.18"/>
</g>
<!-- N&#45;&gt;O -->
<g id="edge16" class="edge" data-name="N-&gt;O">

<path fill="none" stroke="black" d="M435.88,-376.55C437.1,-368.54 438.57,-358.8 439.94,-349.72"/>
<polygon fill="black" stroke="black" points="443.39,-350.29 441.43,-339.88 436.47,-349.24 443.39,-350.29"/>
</g><g id="edge14" class="edge" data-name="M-&gt;F" data-comment="N-&gt;O">

<path fill="none" stroke="black" d="M308.28,-340.84C308.28,-365.75 308.28,-408.63 308.28,-437.11"/>
<polygon fill="black" stroke="black" points="304.78,-436.82 308.28,-446.82 311.78,-436.82 304.78,-436.82"/>
</g>
<!-- P -->
<g id="node16" class="node" pointer-events="visible" data-name="P">

<path fill="none" stroke="black" d="M459.28,-260.4C459.28,-260.4 429.28,-260.4 429.28,-260.4 423.28,-260.4 417.28,-254.4 417.28,-248.4 417.28,-248.4 417.28,-236.4 417.28,-236.4 417.28,-230.4 423.28,-224.4 429.28,-224.4 429.28,-224.4 459.28,-224.4 459.28,-224.4 465.28,-224.4 471.28,-230.4 471.28,-236.4 471.28,-236.4 471.28,-248.4 471.28,-248.4 471.28,-254.4 465.28,-260.4 459.28,-260.4"/>
<text text-anchor="middle" x="444.28" y="-238.2" font-family="Times,serif" font-size="14.00">End</text>
</g>
<!-- O&#45;&gt;P -->
<g id="edge17" class="edge" data-name="O-&gt;P">

<path fill="none" stroke="black" d="M444.28,-301.85C444.28,-293.02 444.28,-282.02 444.28,-271.95"/>
<polygon fill="black" stroke="black" points="447.78,-272.26 444.28,-262.26 440.78,-272.26 447.78,-272.26"/>
</g>
<!-- Q -->

<!-- P&#45;&gt;Q -->

</g>
</svg>