<?xml version="1.0" standalone="no"?>
<svg xmlns="http://www.w3.org/2000/svg" xmlns:xlink="http://www.w3.org/1999/xlink" width="755pt" height="620pt" viewBox="0.00 0.00 755.34 620">
<g id="graph0" class="graph" transform="translate(10.42333658081634,606.3649896754152) scale(1)" data-name="G">

<polygon fill="white" stroke="none" points="-4,4 -4,-616 751.34,-616 751.34,4 -4,4"/>
<!-- start -->
<g id="node1" class="node" pointer-events="visible" data-name="start">

<path fill="none" stroke="black" d="M88.31,-612C88.31,-612 58.31,-612 58.31,-612 52.31,-612 46.31,-606 46.31,-600 46.31,-600 46.31,-588 46.31,-588 46.31,-582 52.31,-576 58.31,-576 58.31,-576 88.31,-576 88.31,-576 94.31,-576 100.31,-582 100.31,-588 100.31,-588 100.31,-600 100.31,-600 100.31,-606 94.31,-612 88.31,-612"/>
<text text-anchor="middle" x="73.31" y="-589.8" font-family="Times,serif" font-size="14.00">Start</text>
</g>
<!-- parameters -->
<g id="node2" class="node" pointer-events="visible" data-name="init_params" data-comment="parameters">

<path fill="none" stroke="black" d="M127.26,-540C127.26,-540 19.37,-540 19.37,-540 13.37,-540 7.37,-534 7.37,-528 7.37,-528 7.37,-516 7.37,-516 7.37,-510 13.37,-504 19.37,-504 19.37,-504 127.26,-504 127.26,-504 133.26,-504 139.26,-510 139.26,-516 139.26,-516 139.26,-528 139.26,-528 139.26,-534 133.26,-540 127.26,-540"/>
<text text-anchor="middle" x="73.31" y="-517.8" font-family="Times,serif" font-size="14.00">Initialize Parameters</text>
</g>
<!-- start&#45;&gt;parameters -->
<g id="edge1" class="edge" data-name="start-&gt;init_params" data-comment="start-&gt;parameters">

<path fill="none" stroke="black" d="M73.31,-575.7C73.31,-568.41 73.31,-559.73 73.31,-551.54"/>
<polygon fill="black" stroke="black" points="76.81,-551.62 73.31,-541.62 69.81,-551.62 76.81,-551.62"/>
</g>
<!-- time_array -->
<g id="node3" class="node" pointer-events="visible" data-name="gen_chirp" data-comment="time_array">

<path fill="none" stroke="black" d="M132,-468C132,-468 14.63,-468 14.63,-468 8.63,-468 2.63,-462 2.63,-456 2.63,-456 2.63,-444 2.63,-444 2.63,-438 8.63,-432 14.63,-432 14.63,-432 132,-432 132,-432 138,-432 144,-438 144,-444 144,-444 144,-456 144,-456 144,-462 138,-468 132,-468"/>
<text text-anchor="middle" x="73.31" y="-445.8" font-family="Times,serif" font-size="14.00">Generate Chirp Signal</text>
</g>
<!-- parameters&#45;&gt;time_array -->
<g id="edge2" class="edge" data-name="init_params-&gt;gen_chirp" data-comment="parameters-&gt;time_array">

<path fill="none" stroke="black" d="M73.31,-503.7C73.31,-496.41 73.31,-487.73 73.31,-479.54"/>
<polygon fill="black" stroke="black" points="76.81,-479.62 73.31,-469.62 69.81,-479.62 76.81,-479.62"/>
</g>
<!-- chirp_signal -->

<!-- time_array&#45;&gt;chirp_signal -->
<g id="edge3" class="edge" data-name="gen_chirp-&gt;plot_chirp" data-comment="time_array-&gt;chirp_signal">

<path fill="none" stroke="black" d="M73.31,-431.7C73.31,-424.41 73.31,-415.73 73.31,-407.54"/>
<polygon fill="black" stroke="black" points="76.81,-407.62 73.31,-397.62 69.81,-407.62 76.81,-407.62"/>
</g>
<!-- plot_chirp -->
<g id="node4" class="node" pointer-events="visible" data-name="plot_chirp">

<path fill="none" stroke="black" d="M118.05,-396C118.05,-396 28.58,-396 28.58,-396 22.58,-396 16.58,-390 16.58,-384 16.58,-384 16.58,-372 16.58,-372 16.58,-366 22.58,-360 28.58,-360 28.58,-360 118.05,-360 118.05,-360 124.05,-360 130.05,-366 130.05,-372 130.05,-372 130.05,-384 130.05,-384 130.05,-390 124.05,-396 118.05,-396"/>
<text text-anchor="middle" x="73.31" y="-373.8" font-family="Times,serif" font-size="14.00">Plot Chirp Signal</text>
</g>
<!-- chirp_signal&#45;&gt;plot_chirp -->

<!-- init_results -->
<g id="node5" class="node" pointer-events="visible" data-name="init_results">

<path fill="none" stroke="black" d="M134.44,-324C134.44,-324 12.19,-324 12.19,-324 6.19,-324 0.19,-318 0.19,-312 0.19,-312 0.19,-300 0.19,-300 0.19,-294 6.19,-288 12.19,-288 12.19,-288 134.44,-288 134.44,-288 140.44,-288 146.44,-294 146.44,-300 146.44,-300 146.44,-312 146.44,-312 146.44,-318 140.44,-324 134.44,-324"/>
<text text-anchor="middle" x="73.31" y="-301.8" font-family="Times,serif" font-size="14.00">Initialize Result Arrays</text>
</g>
<!-- plot_chirp&#45;&gt;init_results -->
<g id="edge4" class="edge" data-name="plot_chirp-&gt;init_results">

<path fill="none" stroke="black" d="M73.31,-359.7C73.31,-352.41 73.31,-343.73 73.31,-335.54"/>
<polygon fill="black" stroke="black" points="76.81,-335.62 73.31,-325.62 69.81,-335.62 76.81,-335.62"/>
</g>
<!-- snr_loop -->
<g id="node6" class="node" pointer-events="visible" data-name="snr_loop">

<path fill="none" stroke="black" d="M133.24,-252C133.24,-252 13.39,-252 13.39,-252 7.39,-252 1.39,-246 1.39,-240 1.39,-240 1.39,-228 1.39,-228 1.39,-222 7.39,-216 13.39,-216 13.39,-216 133.24,-216 133.24,-216 139.24,-216 145.24,-222 145.24,-228 145.24,-228 145.24,-240 145.24,-240 145.24,-246 139.24,-252 133.24,-252"/>
<text text-anchor="middle" x="73.31" y="-229.8" font-family="Times,serif" font-size="14.00">Loop over SNR Range</text>
</g>
<!-- init_results&#45;&gt;snr_loop -->
<g id="edge5" class="edge" data-name="init_results-&gt;snr_loop">

<path fill="none" stroke="black" d="M73.31,-287.7C73.31,-280.41 73.31,-271.73 73.31,-263.54"/>
<polygon fill="black" stroke="black" points="76.81,-263.62 73.31,-253.62 69.81,-263.62 76.81,-263.62"/>
</g><g id="edge6" class="edge" data-name="snr_loop-&gt;sim_loop" data-comment="init_results-&gt;snr_loop">

<path fill="none" stroke="black" d="M67.4,-215.7C66.65,-208.41 66.4,-199.73 66.67,-191.54"/>
<polygon fill="black" stroke="black" points="70.16,-191.82 67.32,-181.61 63.17,-191.36 70.16,-191.82"/>
</g>
<!-- noise_var -->

<!-- snr_loop&#45;&gt;noise_var -->

<!-- calc_results -->
<g id="node11" class="node" pointer-events="visible" data-name="calc_results">

<path fill="none" stroke="black" d="M714.9,-180C714.9,-180 625.72,-180 625.72,-180 619.72,-180 613.72,-174 613.72,-168 613.72,-168 613.72,-156 613.72,-156 613.72,-150 619.72,-144 625.72,-144 625.72,-144 714.9,-144 714.9,-144 720.9,-144 726.9,-150 726.9,-156 726.9,-156 726.9,-168 726.9,-168 726.9,-174 720.9,-180 714.9,-180"/>
<text text-anchor="middle" x="670.31" y="-157.8" font-family="Times,serif" font-size="14.00">Calculate Results</text>
</g><g id="edge11" class="edge" data-name="sim_loop-&gt;snr_loop" data-comment="calc_results">

<path fill="none" stroke="black" d="M79.21,-180.1C79.97,-187.37 80.22,-196.04 79.97,-204.24"/>
<polygon fill="black" stroke="black" points="76.48,-203.98 79.33,-214.19 83.46,-204.43 76.48,-203.98"/>
</g>
<!-- snr_loop&#45;&gt;calc_results -->
<g id="edge12" class="edge" data-name="snr_loop-&gt;calc_results">

<path fill="none" stroke="black" d="M145.51,-229.3C245.91,-223.37 433.44,-209.49 602.45,-180.16"/>
<polygon fill="black" stroke="black" points="602.82,-183.65 612.06,-178.47 601.61,-176.76 602.82,-183.65"/>
</g><g id="node8" class="node" pointer-events="visible" data-name="gen_signal" data-comment="snr_loop-&gt;calc_results">

<path fill="none" stroke="black" d="M321.66,-180C321.66,-180 174.96,-180 174.96,-180 168.96,-180 162.96,-174 162.96,-168 162.96,-168 162.96,-156 162.96,-156 162.96,-150 168.96,-144 174.96,-144 174.96,-144 321.66,-144 321.66,-144 327.66,-144 333.66,-150 333.66,-156 333.66,-156 333.66,-168 333.66,-168 333.66,-174 327.66,-180 321.66,-180"/>
<text text-anchor="middle" x="248.31" y="-157.8" font-family="Times,serif" font-size="14.00">Generate Signal with Noise</text>
</g>
<!-- sim_loop -->
<g id="node7" class="node" pointer-events="visible" data-name="sim_loop">

<path fill="none" stroke="black" d="M133.64,-180C133.64,-180 12.99,-180 12.99,-180 6.99,-180 0.99,-174 0.99,-168 0.99,-168 0.99,-156 0.99,-156 0.99,-150 6.99,-144 12.99,-144 12.99,-144 133.64,-144 133.64,-144 139.64,-144 145.64,-150 145.64,-156 145.64,-156 145.64,-168 145.64,-168 145.64,-174 139.64,-180 133.64,-180"/>
<text text-anchor="middle" x="73.31" y="-157.8" font-family="Times,serif" font-size="14.00">Loop over Simulations</text>
</g><g id="edge7" class="edge" data-name="sim_loop-&gt;gen_signal" data-comment="sim_loop">

<path fill="none" stroke="black" d="M146.12,-162C147.74,-162 149.36,-162 150.98,-162"/>
<polygon fill="black" stroke="black" points="150.97,-165.5 160.97,-162 150.97,-158.5 150.97,-165.5"/>
</g>
<!-- noise_var&#45;&gt;sim_loop -->
<g id="node9" class="node" pointer-events="visible" data-name="est_end_time" data-comment="noise_var-&gt;sim_loop">

<path fill="none" stroke="black" d="M463.4,-180C463.4,-180 363.23,-180 363.23,-180 357.23,-180 351.23,-174 351.23,-168 351.23,-168 351.23,-156 351.23,-156 351.23,-150 357.23,-144 363.23,-144 363.23,-144 463.4,-144 463.4,-144 469.4,-144 475.4,-150 475.4,-156 475.4,-156 475.4,-168 475.4,-168 475.4,-174 469.4,-180 463.4,-180"/>
<text text-anchor="middle" x="413.31" y="-157.8" font-family="Times,serif" font-size="14.00">Estimate End Time</text>
</g>
<!-- rand_end_time -->
<g id="edge8" class="edge" data-name="gen_signal-&gt;est_end_time" data-comment="rand_end_time">

<path fill="none" stroke="black" d="M334.04,-162C335.78,-162 337.52,-162 339.26,-162"/>
<polygon fill="black" stroke="black" points="339.25,-165.5 349.25,-162 339.25,-158.5 339.25,-165.5"/>
</g>
<!-- sim_loop&#45;&gt;rand_end_time -->
<g id="node10" class="node" pointer-events="visible" data-name="calc_error" data-comment="sim_loop-&gt;rand_end_time">

<path fill="none" stroke="black" d="M583.21,-180C583.21,-180 505.41,-180 505.41,-180 499.41,-180 493.41,-174 493.41,-168 493.41,-168 493.41,-156 493.41,-156 493.41,-150 499.41,-144 505.41,-144 505.41,-144 583.21,-144 583.21,-144 589.21,-144 595.21,-150 595.21,-156 595.21,-156 595.21,-168 595.21,-168 595.21,-174 589.21,-180 583.21,-180"/>
<text text-anchor="middle" x="544.31" y="-157.8" font-family="Times,serif" font-size="14.00">Calculate Error</text>
</g>
<!-- sim_loop&#45;&gt;calc_results -->
<g id="edge9" class="edge" data-name="est_end_time-&gt;calc_error" data-comment="sim_loop-&gt;calc_results">

<path fill="none" stroke="black" d="M475.74,-162C477.74,-162 479.73,-162 481.73,-162"/>
<polygon fill="black" stroke="black" points="481.64,-165.5 491.64,-162 481.64,-158.5 481.64,-165.5"/>
</g>
<!-- time_indices -->
<g id="edge10" class="edge" data-name="calc_error-&gt;sim_loop" data-comment="time_indices">

<path fill="none" stroke="black" d="M516.67,-180.32C504.52,-187.32 489.75,-194.46 475.31,-198 407.98,-214.51 231.4,-211.11 163.31,-198 148.97,-195.24 134.01,-190.21 120.49,-184.77"/>
<polygon fill="black" stroke="black" points="121.98,-181.6 111.4,-180.94 119.26,-188.05 121.98,-181.6"/>
</g>
<!-- rand_end_time&#45;&gt;time_indices -->
<g id="node12" class="node" pointer-events="visible" data-name="display_plot" data-comment="rand_end_time-&gt;time_indices">

<path fill="none" stroke="black" d="M735.37,-108C735.37,-108 605.26,-108 605.26,-108 599.26,-108 593.26,-102 593.26,-96 593.26,-96 593.26,-84 593.26,-84 593.26,-78 599.26,-72 605.26,-72 605.26,-72 735.37,-72 735.37,-72 741.37,-72 747.37,-78 747.37,-84 747.37,-84 747.37,-96 747.37,-96 747.37,-102 741.37,-108 735.37,-108"/>
<text text-anchor="middle" x="670.31" y="-85.8" font-family="Times,serif" font-size="14.00">Display and Plot Results</text>
</g>
<!-- received_signal -->
<g id="edge13" class="edge" data-name="calc_results-&gt;display_plot" data-comment="received_signal">

<path fill="none" stroke="black" d="M670.31,-143.7C670.31,-136.41 670.31,-127.73 670.31,-119.54"/>
<polygon fill="black" stroke="black" points="673.81,-119.62 670.31,-109.62 666.81,-119.62 673.81,-119.62"/>
</g>
<!-- time_indices&#45;&gt;received_signal -->

<!-- add_noise -->
<g id="edge14" class="edge" data-name="display_plot-&gt;end" data-comment="add_noise">

<path fill="none" stroke="black" d="M670.31,-71.7C670.31,-64.41 670.31,-55.73 670.31,-47.54"/>
<polygon fill="black" stroke="black" points="673.81,-47.62 670.31,-37.62 666.81,-47.62 673.81,-47.62"/>
</g>
<g id="node13" class="node" pointer-events="visible" data-name="end" data-comment="add_noise">

<path fill="none" stroke="black" d="M685.31,-36C685.31,-36 655.31,-36 655.31,-36 649.31,-36 643.31,-30 643.31,-24 643.31,-24 643.31,-12 643.31,-12 643.31,-6 649.31,0 655.31,0 655.31,0 685.31,0 685.31,0 691.31,0 697.31,-6 697.31,-12 697.31,-12 697.31,-24 697.31,-24 697.31,-30 691.31,-36 685.31,-36"/>
<text text-anchor="middle" x="670.31" y="-13.8" font-family="Times,serif" font-size="14.00">End</text>
</g></g>
</svg>